<?xml version="1.0" encoding="UTF-8" standalone="no"?>
<!-- Created with Inkscape (http://www.inkscape.org/) -->

<svg
   version="1.1"
   id="svg2"
   xml:space="preserve"
   width="1100.04"
   height="1100"
   viewBox="0 0 1100.04 1100"
   sodipodi:docname="viber-icon-seeklogo.com.eps"
   xmlns:inkscape="http://www.inkscape.org/namespaces/inkscape"
   xmlns:sodipodi="http://sodipodi.sourceforge.net/DTD/sodipodi-0.dtd"
   xmlns="http://www.w3.org/2000/svg"
   xmlns:svg="http://www.w3.org/2000/svg"><defs
     id="defs6" /><sodipodi:namedview
     id="namedview4"
     pagecolor="#ffffff"
     bordercolor="#666666"
     borderopacity="1.0"
     inkscape:pageshadow="2"
     inkscape:pageopacity="0.0"
     inkscape:pagecheckerboard="0" /><g
     id="g8"
     inkscape:groupmode="layer"
     inkscape:label="ink_ext_XXXXXX"
     transform="matrix(1.3333333,0,0,-1.3333333,0,1100)"><g
       id="g10"
       transform="scale(0.1)"><path
         d="M 8250.29,4126.22 C 8250.29,1847.13 6403.22,0 4124.97,0 1846.46,0 0,1847.13 0,4126.22 0,6404.15 1846.46,8250 4124.97,8250 6403.22,8250 8250.29,6404.15 8250.29,4126.22"
         style="fill:#4a1e59;fill-opacity:1;fill-rule:nonzero;stroke:none"
         id="path12" /><path
         d="m 5308.11,1947.29 c -162.79,-6.29 -318.08,30.06 -473.69,75.14 -1047.86,299.29 -1832.71,952.96 -2464.51,1815.78 -238.52,326.86 -459.85,661.23 -533.45,1066.96 -87.01,483.37 52,896.61 412.33,1228.47 115.54,107.72 465.55,154.01 605.77,85.15 51.36,-25.01 85.15,-71.36 106.76,-121.44 132.14,-311.86 263.01,-624.88 392.58,-939.24 24.43,-58.86 13.47,-118.94 -13.78,-179.08 -66.36,-145.22 -172.8,-260.44 -281.73,-375.66 -82.97,-85.14 -85.15,-161.57 -25.07,-263 370.34,-613.6 881.6,-1061.9 1550.34,-1329.91 99.83,-40.07 175.29,-27.57 241.65,57.65 111.18,138.93 230.12,274.22 335.33,418.23 71.68,98.92 154.33,113.93 256.4,68.86 221.97,-102.65 442.67,-207.87 663.42,-311.8 49.75,-23.79 98.61,-47.58 147.72,-71.36 224.48,-111.5 221.33,-114 202.54,-360.66 -37.24,-483.37 -399.76,-721.31 -828.95,-840.31 -94.57,-25.01 -195.05,-28.78 -293.66,-23.78"
         style="fill:#ffffff;fill-opacity:1;fill-rule:evenodd;stroke:none"
         id="path14" /><path
         d="m 5726.02,5680.34 c 177.22,-156.58 300.58,-353.16 402.33,-564.8 81.04,-169.08 131.12,-346.87 162.79,-530.96 6.22,-36.35 22.83,-77.64 -13.46,-111.43 -100.53,-6.28 -201,-10.06 -300.58,-20.06 -39.43,-5.01 -50.39,5 -55.39,43.85 -44.76,345.59 -187.23,649.89 -425.48,902.89 -346.88,368.15 -776.07,548.45 -1284.19,534.73 -13.14,0 -26.29,-1.28 -66.04,-2.56 -2.82,112.71 -5.64,226.71 -8.47,340.65 22.19,38.79 61.68,31.29 96.12,31.29 209.4,5 414.83,-22.51 615.77,-82.65 163.75,-48.86 320.58,-115.22 465.87,-206.58 44.44,-27.58 87,-58.87 127.08,-93.93 33.22,-27.58 99.25,-83.93 132.46,-111.5 37.58,-32.51 113.94,-96.37 151.19,-128.94"
         style="fill:#ffffff;fill-opacity:1;fill-rule:evenodd;stroke:none"
         id="path16" /><path
         d="m 5234.82,5394.83 c 276.73,-239.22 447.41,-542.24 504.66,-907.96 6.61,-43.79 -3.13,-58.86 -48.86,-60.07 -88.85,-3.79 -178.11,-12.51 -266.71,-22.57 -27.51,-1.22 -37.58,2.5 -41.62,33.85 -47,318.08 -204.78,571.02 -467.41,755.1 -193.82,135.22 -412.33,201.65 -650.27,194.08 -38.47,-1.22 -51.03,7.57 -52.89,46.36 -4.68,91.43 -12.82,182.86 -23.47,273.01 -3.14,31.29 4.36,40.07 36.61,40.07 379.76,11.28 714.45,-106.44 1009.96,-351.87"
         style="fill:#ffffff;fill-opacity:1;fill-rule:evenodd;stroke:none"
         id="path18" /><path
         d="m 4859.49,4359.16 c -40.4,296.79 -268.01,500.94 -560.45,504.65 -27.5,0 -39.43,2.5 -41.29,33.86 -5.96,90.15 -14.74,181.58 -24.43,271.72 -3.46,27.57 2.19,36.29 30.97,37.58 440.23,28.79 889.17,-349.37 934.57,-790.18 3.4,-26.28 -7.25,-28.85 -28.54,-31.35 -102.07,-7.5 -204.08,-17.5 -310.83,-26.28"
         style="fill:#ffffff;fill-opacity:1;fill-rule:evenodd;stroke:none"
         id="path20" /></g></g></svg>
